<?xml version="1.0" standalone="no"?>
<!DOCTYPE svg PUBLIC "-//W3C//DTD SVG 20010904//EN"
 "http://www.w3.org/TR/2001/REC-SVG-20010904/DTD/svg10.dtd">
<svg version="1.0" xmlns="http://www.w3.org/2000/svg"
 width="509.000000pt" height="509.000000pt" viewBox="0 0 509.000000 509.000000"
 preserveAspectRatio="xMidYMid meet">
<metadata>
Created by potrace 1.11, written by Peter Selinger 2001-2013
</metadata>
<g transform="translate(0.000000,509.000000) scale(0.100000,-0.100000)"
fill="#000000" stroke="none">
<path d="M2887 4678 c-117 -281 -286 -716 -282 -726 3 -7 1 -11 -4 -8 -12 8
-44 -81 -35 -95 4 -7 3 -9 -3 -6 -6 4 -48 -90 -100 -221 -63 -156 -95 -226
-104 -224 -8 2 -142 48 -299 103 -156 55 -290 97 -298 94 -7 -2 -11 -1 -8 4 7
11 -172 74 -191 67 -8 -3 -12 -2 -9 3 8 12 -949 345 -965 336 -7 -5 -10 -4 -6
2 6 10 -482 187 -491 178 -8 -8 42 -84 51 -78 6 3 7 1 3 -5 -10 -16 22 -74 36
-66 7 4 8 3 4 -4 -9 -15 34 -93 47 -85 6 3 7 1 3 -5 -10 -16 12 -54 26 -46 7
4 8 3 4 -5 -10 -15 72 -163 86 -155 7 4 8 2 4 -5 -10 -16 62 -143 76 -135 7 4
8 2 4 -4 -10 -16 32 -94 46 -86 7 4 8 3 4 -4 -10 -16 22 -74 36 -66 7 4 8 3 4
-4 -10 -16 83 -184 96 -176 7 4 8 2 4 -4 -10 -16 63 -144 76 -135 7 3 8 1 4
-5 -9 -15 34 -93 47 -85 6 3 7 1 3 -5 -9 -15 102 -214 115 -207 5 4 6 -2 2
-11 -5 -13 -3 -15 7 -9 8 5 11 4 6 -3 -3 -6 -1 -21 5 -35 9 -20 37 -32 175
-76 102 -32 174 -50 187 -46 13 4 17 3 10 -2 -8 -6 43 -26 140 -56 317 -100
434 -136 490 -152 31 -9 70 -27 86 -41 34 -28 49 -32 30 -6 -13 15 -12 16 4 3
9 -8 15 -16 12 -19 -7 -7 25 -42 38 -42 5 0 3 8 -4 18 -13 15 -12 16 4 3 9 -8
15 -16 12 -19 -6 -7 25 -42 37 -42 5 0 6 5 2 12 -4 7 -3 8 5 4 6 -4 9 -11 6
-15 -2 -5 4 -16 14 -25 19 -17 19 -19 -15 -77 -19 -33 -32 -64 -28 -71 4 -7 3
-8 -4 -4 -14 8 -36 -30 -26 -46 4 -7 3 -8 -4 -4 -14 8 -56 -70 -46 -86 4 -7 3
-8 -4 -4 -14 8 -66 -79 -56 -95 4 -7 3 -9 -4 -5 -14 8 -76 -100 -66 -115 4 -7
3 -9 -3 -6 -14 9 -207 -319 -197 -334 4 -7 3 -9 -3 -6 -7 4 -43 -48 -89 -126
l-78 -132 3 -130 c2 -80 7 -135 14 -144 9 -11 9 -13 0 -8 -8 5 -10 -16 -7 -81
2 -48 6 -136 8 -197 3 -60 5 -131 6 -156 l0 -46 157 -62 c86 -34 160 -58 164
-54 4 4 78 161 164 348 l157 340 4 120 c10 286 12 347 16 350 1 2 208 63 458
135 250 73 456 133 457 134 2 2 17 103 28 196 2 19 9 73 15 120 6 47 13 101
15 120 2 19 9 71 14 115 6 44 13 103 16 130 9 69 7 64 106 297 52 122 86 215
83 225 -4 12 -3 14 3 6 5 -8 24 25 53 95 25 59 44 109 44 112 -1 3 -41 129
-89 280 -120 380 -175 557 -175 563 0 3 43 8 95 12 68 5 93 10 88 18 -5 9 -3
9 8 1 10 -8 65 -5 198 8 149 15 186 21 197 36 7 9 11 23 9 30 -3 7 -1 11 4 8
12 -8 94 102 86 114 -4 6 -3 9 2 8 4 -1 19 5 33 14 14 9 54 19 90 22 36 4 83
9 105 11 22 3 150 16 285 30 235 24 299 31 365 40 17 2 62 7 100 11 39 3 73
12 77 18 5 8 8 7 8 -2 0 -7 4 -11 8 -8 5 3 29 6 55 7 30 2 47 7 47 15 0 17
-20 22 -135 30 -55 3 -107 8 -115 9 -8 2 -62 6 -120 10 -58 4 -112 8 -120 10
-8 2 -62 6 -120 10 -58 4 -112 8 -120 10 -8 2 -60 6 -115 10 -55 4 -111 8
-125 10 -14 2 -61 7 -105 11 -75 6 -82 9 -108 40 -16 19 -33 32 -38 28 -5 -3
-9 -2 -8 3 3 19 -2 33 -12 33 -5 0 -7 -4 -4 -10 10 -16 -1 -11 -16 7 -12 15
-12 16 1 8 13 -7 13 -6 2 7 -7 9 -37 19 -69 23 -32 4 -65 8 -75 10 -15 3 -188
29 -278 41 -19 3 -42 7 -52 10 -9 3 -19 0 -23 -6 -3 -5 -12 -10 -18 -10 -8 0
-7 3 2 9 9 6 0 11 -30 15 -24 4 -56 9 -72 12 -24 5 -29 1 -42 -30 -9 -20 -20
-33 -28 -31 -27 10 -242 75 -248 75 -4 0 -9 -6 -12 -12z m1200 -244 c-3 -3
-12 -4 -19 -1 -8 3 -5 6 6 6 11 1 17 -2 13 -5z m116 -11 c-7 -2 -19 -2 -25 0
-7 3 -2 5 12 5 14 0 19 -2 13 -5z m120 -10 c-7 -2 -19 -2 -25 0 -7 3 -2 5 12
5 14 0 19 -2 13 -5z m-321 -28 c3 3 10 -1 16 -8 9 -10 8 -14 -3 -14 -8 0 -23
10 -32 21 -14 15 -14 18 -2 8 9 -6 18 -10 21 -7z m805 -11 c-3 -3 -12 -4 -19
-1 -8 3 -5 6 6 6 11 1 17 -2 13 -5z m227 -23 c4 -5 -3 -7 -14 -4 -23 6 -26 13
-6 13 8 0 17 -4 20 -9z m-2020 -29 c3 -5 -1 -9 -9 -9 -8 0 -12 4 -9 9 3 4 7 8
9 8 2 0 6 -4 9 -8z m1016 -18 c0 -8 -19 -13 -24 -6 -3 5 1 9 9 9 8 0 15 -2 15
-3z m-1036 -12 c3 -5 -1 -9 -9 -9 -8 0 -12 4 -9 9 3 4 7 8 9 8 2 0 6 -4 9 -8z
m127 -25 c-10 -9 -11 -8 -5 6 3 10 9 15 12 12 3 -3 0 -11 -7 -18z m1282 6 c-7
-2 -19 -2 -25 0 -7 3 -2 5 12 5 14 0 19 -2 13 -5z m-403 -9 c0 -8 -19 -13 -24
-6 -3 5 1 9 9 9 8 0 15 -2 15 -3z m297 0 c-3 -3 -12 -4 -19 -1 -8 3 -5 6 6 6
11 1 17 -2 13 -5z m-90 -10 c-3 -3 -12 -4 -19 -1 -8 3 -5 6 6 6 11 1 17 -2 13
-5z m-180 -20 c-3 -3 -12 -4 -19 -1 -8 3 -5 6 6 6 11 1 17 -2 13 -5z m-3899
-89 c-3 -3 -9 2 -12 12 -6 14 -5 15 5 6 7 -7 10 -15 7 -18z m103 -15 c5 0 9
-5 9 -10 0 -7 -7 -7 -20 0 -11 6 -26 8 -32 4 -7 -5 -8 -3 -4 5 5 7 15 10 23 7
8 -3 19 -6 24 -6z m49 -14 c0 -2 -7 -7 -16 -10 -8 -3 -12 -2 -9 4 6 10 25 14
25 6z m2580 -42 c0 -8 -19 -13 -24 -6 -3 5 1 9 9 9 8 0 15 -2 15 -3z m-40 -60
c0 -8 -19 -13 -24 -6 -3 5 1 9 9 9 8 0 15 -2 15 -3z m687 -20 c-3 -3 -12 -4
-19 -1 -8 3 -5 6 6 6 11 1 17 -2 13 -5z m-2560 -279 c0 -8 -4 -12 -9 -9 -5 3
-6 10 -3 15 9 13 12 11 12 -6z m1577 -123 c3 -5 -1 -9 -9 -9 -8 0 -12 4 -9 9
3 4 7 8 9 8 2 0 6 -4 9 -8z m-40 -60 c3 -5 -1 -9 -9 -9 -8 0 -12 4 -9 9 3 4 7
8 9 8 2 0 6 -4 9 -8z m-58 -80 c0 -10 -5 -19 -12 -19 -6 0 -9 9 -6 19 2 10 7
18 11 18 4 0 7 -8 7 -18z m-19 -88 c-3 -3 -12 -4 -19 -1 -8 3 -5 6 6 6 11 1
17 -2 13 -5z m38 -4 c-3 -5 -12 -10 -18 -10 -7 0 -6 4 3 10 19 12 23 12 15 0z
m132 -86 c-3 -3 -12 -4 -19 -1 -8 3 -5 6 6 6 11 1 17 -2 13 -5z m50 -10 c-3
-3 -12 -4 -19 -1 -8 3 -5 6 6 6 11 1 17 -2 13 -5z m80 -7 c0 -8 -6 -14 -13
-14 -7 0 -10 6 -7 14 3 7 8 13 12 13 4 0 8 -6 8 -13z m-300 -3 c-3 -3 -12 -4
-19 -1 -8 3 -5 6 6 6 11 1 17 -2 13 -5z m-146 -32 c-7 -2 -18 1 -23 6 -8 8 -4
9 13 5 13 -4 18 -8 10 -11z m-396 -22 c3 -5 -1 -10 -10 -10 -9 0 -13 5 -10 10
3 6 8 10 10 10 2 0 7 -4 10 -10z m-358 -46 c-3 -3 -12 -4 -19 -1 -8 3 -5 6 6
6 11 1 17 -2 13 -5z m-190 -20 c-3 -3 -12 -4 -19 -1 -8 3 -5 6 6 6 11 1 17 -2
13 -5z m2157 -2 c3 -5 -1 -9 -9 -9 -8 0 -12 4 -9 9 3 4 7 8 9 8 2 0 6 -4 9 -8z
m-2107 -8 c-3 -3 -12 -4 -19 -1 -8 3 -5 6 6 6 11 1 17 -2 13 -5z m-90 -10 c-3
-3 -12 -4 -19 -1 -8 3 -5 6 6 6 11 1 17 -2 13 -5z m1517 -2 c3 -5 -1 -9 -9 -9
-8 0 -12 4 -9 9 3 4 7 8 9 8 2 0 6 -4 9 -8z m-1624 -12 c0 -5 -2 -10 -4 -10
-3 0 -8 5 -11 10 -3 6 -1 10 4 10 6 0 11 -4 11 -10z m12 -23 c-14 -6 -26 -7
-32 -1 -5 5 4 9 23 10 30 1 30 1 9 -9z m1645 -32 c0 -8 -4 -12 -9 -9 -5 3 -6
10 -3 15 9 13 12 11 12 -6z m-1611 -31 c1 -9 0 -13 -4 -10 -3 4 -7 14 -8 22
-1 9 0 13 4 10 3 -4 7 -14 8 -22z m159 6 c-3 -5 -12 -10 -18 -10 -7 0 -6 4 3
10 19 12 23 12 15 0z m-109 -46 c1 -9 0 -13 -4 -10 -3 4 -7 14 -8 22 -1 9 0
13 4 10 3 -4 7 -14 8 -22z m1604 20 c0 -8 -19 -13 -24 -6 -3 5 1 9 9 9 8 0 15
-2 15 -3z m-1536 -76 c-3 -5 -12 -4 -20 3 -7 6 -11 15 -8 21 3 5 12 4 20 -3 7
-6 11 -15 8 -21z m45 -22 c9 -11 9 -16 -1 -22 -7 -4 -10 -4 -6 1 4 4 3 14 -3
22 -6 7 -9 13 -6 13 2 0 10 -6 16 -14z m426 -16 c-3 -5 -12 -10 -18 -10 -7 0
-6 4 3 10 19 12 23 12 15 0z m-319 -86 c1 -9 -1 -13 -4 -9 -4 4 -7 10 -7 13 0
4 -4 14 -9 22 -7 12 -6 13 4 3 8 -7 15 -20 16 -29z m53 -28 c9 -11 9 -16 -1
-22 -7 -4 -10 -4 -6 1 4 4 3 14 -3 22 -6 7 -9 13 -6 13 2 0 10 -6 16 -14z m47
-52 c1 -9 0 -13 -4 -10 -3 4 -7 14 -8 22 -1 9 0 13 4 10 3 -4 7 -14 8 -22z
m51 -31 c-4 -3 -1 -13 6 -22 11 -14 10 -14 -5 -2 -16 12 -16 31 -1 31 4 0 3
-3 0 -7z m1433 1 c0 -8 -19 -13 -24 -6 -3 5 1 9 9 9 8 0 15 -2 15 -3z m34 -52
c3 -5 -1 -9 -9 -9 -8 0 -12 4 -9 9 3 4 7 8 9 8 2 0 6 -4 9 -8z m-1358 -48 c1
-9 0 -13 -4 -10 -3 4 -7 14 -8 22 -1 9 0 13 4 10 3 -4 7 -14 8 -22z m60 -50
c1 -9 0 -13 -4 -10 -3 4 -7 14 -8 22 -1 9 0 13 4 10 3 -4 7 -14 8 -22z m50
-40 c1 -9 0 -13 -4 -10 -3 4 -7 14 -8 22 -1 9 0 13 4 10 3 -4 7 -14 8 -22z
m1338 -2 c3 -5 -1 -9 -9 -9 -8 0 -12 4 -9 9 3 4 7 8 9 8 2 0 6 -4 9 -8z
m-1296 -25 c-1 -2 3 -11 11 -20 9 -11 10 -17 2 -17 -6 0 -11 3 -12 8 0 4 -2
15 -4 25 -2 11 -1 17 2 14 2 -3 3 -7 1 -10z m1279 -63 c-3 -3 -12 -4 -19 -1
-8 3 -5 6 6 6 11 1 17 -2 13 -5z m-200 -20 c-3 -3 -12 -4 -19 -1 -8 3 -5 6 6
6 11 1 17 -2 13 -5z m158 -21 c-2 -10 -4 -19 -4 -21 -1 -2 -6 0 -11 3 -8 5 -7
11 1 21 15 18 18 18 14 -3z m-48 -38 c0 -8 -4 -12 -9 -9 -5 3 -6 10 -3 15 9
13 12 11 12 -6z m100 -7 c-3 -8 -6 -5 -6 6 -1 11 2 17 5 13 3 -3 4 -12 1 -19z
m-142 -27 c3 -5 2 -12 -3 -15 -5 -3 -9 1 -9 9 0 17 3 19 12 6z m-680 -21 c3
-6 -1 -7 -9 -4 -18 7 -21 14 -7 14 6 0 13 -4 16 -10z m622 -25 c0 -8 -4 -12
-9 -9 -5 3 -6 10 -3 15 9 13 12 11 12 -6z m-41 -30 c-1 -8 -5 -17 -8 -21 -5
-4 -4 16 1 34 3 9 9 -1 7 -13z m-752 -10 c-4 -8 -8 -15 -10 -15 -2 0 -4 7 -4
15 0 8 4 15 10 15 5 0 7 -7 4 -15z m710 -24 c3 -5 -1 -14 -8 -20 -10 -9 -16
-9 -21 -1 -4 6 -1 9 7 8 7 -2 12 3 11 10 -3 14 3 16 11 3z m-148 -116 c-1 -8
-5 -17 -8 -21 -5 -4 -4 16 1 34 3 9 9 -1 7 -13z m-50 -40 c-1 -8 -5 -17 -8
-21 -5 -4 -4 16 1 34 3 9 9 -1 7 -13z m-49 -40 c0 -8 -4 -12 -9 -9 -5 3 -6 10
-3 15 9 13 12 11 12 -6z m-480 -167 c-3 -7 -5 -2 -5 12 0 14 2 19 5 13 2 -7 2
-19 0 -25z m838 -68 c3 -6 -1 -7 -9 -4 -18 7 -21 14 -7 14 6 0 13 -4 16 -10z
m-818 -142 c-3 -7 -5 -2 -5 12 0 14 2 19 5 13 2 -7 2 -19 0 -25z m-20 -430
c-3 -7 -5 -2 -5 12 0 14 2 19 5 13 2 -7 2 -19 0 -25z m-342 -128 c4 -6 1 -9
-6 -8 -7 2 -13 -2 -14 -9 0 -6 -3 -14 -7 -18 -9 -9 -5 16 5 33 10 15 14 15 22
2z m-84 -63 c-6 -8 -8 -16 -5 -19 3 -3 1 -9 -4 -12 -6 -3 -9 0 -8 6 2 16 15
38 23 38 3 0 0 -6 -6 -13z m-214 -29 c-3 -8 -6 -5 -6 6 -1 11 2 17 5 13 3 -3
4 -12 1 -19z m149 -33 c-1 -8 -8 -21 -16 -28 -10 -10 -11 -9 -4 3 5 8 9 18 10
23 3 14 4 17 8 17 2 0 3 -7 2 -15z m-61 -55 c4 -6 1 -9 -7 -8 -7 2 -12 -3 -10
-10 1 -8 -2 -11 -8 -7 -8 5 -7 11 1 21 14 17 16 17 24 4z m-78 -192 c-3 -8 -6
-5 -6 6 -1 11 2 17 5 13 3 -3 4 -12 1 -19z m10 -280 c-3 -8 -6 -5 -6 6 -1 11
2 17 5 13 3 -3 4 -12 1 -19z"/>
</g>
</svg>
